# xmcd
#
# Track frame offsets: 
#        150
#        18312
#        41232
#        59395
#
# Disc length: 1094 seconds
#
# Revision: 0
# Processed by: cddbd v1.5PL3 Copyright (c) Steve Scherf et al.
# Submitted via: ExactAudioCopy v0.95a3
#
DISCID=2f044404
DTITLE=EXILE - LET ME LUV U DOWN
DYEAR=2003
DGENRE=JPop
TTITLE0=LET ME LUV U DOWN feat. ZEEBRA and MACCHO(OZROSAURUS)
TTITLE1=Together - R.Yamaki's Roller Mix
TTITLE2=LET ME LUV U DOWN feat. ZEEBRA and MACCHO(OZROSAURUS) "Instrumen
TTITLE2=tal"
TTITLE3=Together - R.Yamaki's Roller Mix "Instrumental"
EXTD=
EXTT0=
EXTT1=
EXTT2=
EXTT3=
PLAYORDER=
